<svg xmlns="http://www.w3.org/2000/svg" xmlns:xlink="http://www.w3.org/1999/xlink" viewBox="0 0 42.17 14.28"><defs><style>.cls-1{fill:url(#linear-gradient);}.cls-2{fill:#fff;}</style><linearGradient id="linear-gradient" y1="7.14" x2="18.56" y2="7.14" gradientUnits="userSpaceOnUse"><stop offset="0" stop-color="#06a77d"/><stop offset="1" stop-color="#33eba9"/></linearGradient></defs><title>Asset 8</title><g id="Layer_2" data-name="Layer 2"><g id="Layer_1-2" data-name="Layer 1"><path class="cls-1" d="M18.56,7.14A7.14,7.14,0,0,0,11.42,0H7.14a7.14,7.14,0,0,0,0,14.28H10V10H7.14a2.86,2.86,0,1,1,0-5.71h4.28a2.86,2.86,0,0,1,2,4.88l-2-2v7.14h7.14l-2.09-2.09A7.15,7.15,0,0,0,18.56,7.14Z"/><path class="cls-2" d="M25.85,4.33l.2-.64h1.46v7.77l-1.74,1.26V9.63L25.83,9a1.71,1.71,0,0,1-1.45.71C22.89,9.68,22,8.56,22,6.62s.81-3.07,2.3-3.07A1.94,1.94,0,0,1,25.85,4.33Zm-2.1,2.29c0,1.1.49,1.63,1.1,1.63a1,1,0,0,0,.92-.73V5.7A1,1,0,0,0,24.82,5C24.21,5,23.75,5.52,23.75,6.62Z"/><path class="cls-2" d="M32.36,9.55l-.21-.66a1.85,1.85,0,0,1-1.57.79,1.77,1.77,0,0,1-1.94-2v-4h1.75V7.26c0,.66.23,1,.74,1a1,1,0,0,0,.93-.51v-4h1.75V9.55Z"/><path class="cls-2" d="M35.93,1.4a.88.88,0,0,1,.91.89.92.92,0,0,1-1.83,0A.89.89,0,0,1,35.93,1.4Zm-.88,8.15V3.69H36.8V9.55Z"/><path class="cls-2" d="M42.17,3.82V5.25A2.63,2.63,0,0,0,41,5a1.46,1.46,0,0,0-1.46,1.66A1.46,1.46,0,0,0,41,8.28,2.68,2.68,0,0,0,42.17,8V9.41a4.3,4.3,0,0,1-1.42.27,2.85,2.85,0,0,1-3-3.06,2.85,2.85,0,0,1,3-3.07A4.3,4.3,0,0,1,42.17,3.82Z"/></g></g></svg>